<?xml version="1.0" encoding="UTF-8"?>
<svg id="Layer_1" xmlns="http://www.w3.org/2000/svg" version="1.1" viewBox="0 0 800 800">

  <defs>
    <style>
      .st0 {
        fill: #fff;
      }
    </style>
  </defs>
  <path class="st0" d="M118,0C72.1,0,55.3,16.9,55.3,62.6v552.1c0,5.2.3,10,.7,14.5,1.2,10,1.2,19.8,10.5,30.7.9,1.3,10.3,8.2,10.3,8.2,5.1,2.5,8.6,4.3,14.3,6.6l277.9,116.4c14.3,6.5,20.5,9.3,30.9,8.9h.1c10.5.4,16.7-2.3,31-8.9l277.7-116.4c5.9-2.3,9.2-4.2,14.4-6.6,0,0,9.4-7.2,10.3-8.2,9.4-10.9,9.4-20.7,10.5-30.7.4-4.4.7-9.2.7-14.3V62.6C744.7,16.9,727.7,0,682,0H118ZM563.2,103.6h22.6c37.8,0,56.3,18.4,56.3,56.7v62.6h-45.8v-60.2c0-12.2-5.6-17.8-17.5-17.8h-7.8c-12.2,0-17.8,5.6-17.8,17.8v193.7c0,12.2,5.6,17.8,17.8,17.8h8.7c11.7,0,17.3-5.6,17.3-17.8v-69.3h45.8v71.5c0,38.1-18.7,56.9-56.6,56.9h-23c-38,0-56.7-18.9-56.7-56.9v-198.1c0-38.1,18.6-57,56.7-57h0ZM156.9,106.3h103.8v42.6h-57.2v86.7h55.1v42.5h-55.1v92.4h58v42.6h-104.6V106.3ZM284.1,106.3h73.2c37.9,0,56.6,18.9,56.6,57v81.5c0,38.1-18.8,56.9-56.6,56.9h-26.4v111.3h-46.8V106.3ZM435,106.3h46.6v306.8h-46.6V106.3ZM330.7,147.5v113h19.3c11.7,0,17.3-5.7,17.3-18v-77.1c0-12.2-5.6-18-17.3-18h-19.3ZM202.2,485.9h6.9l1.6.3h2.5l1.3.4h1.3l1.2.4,1.3.3,1,.3,2.3.5,1.3.4.9.3,1,.4,1.3.4.9.4,1.3.5,1.2.5,1,.6,1.2.5.9.6,1.3.7,1,.6,1,.5,1,.8,1.1.7.9.8,3.1,2.4-.8,1-.9.9-.8.9-.9,1-.6.9-.8.9-.9.9-.8,1-.6.9-.9,1.1-.8.9-.9,1-.8.9-.6,1-.9.9-.8,1.1-.9.9-.8.9-.9-.6-1-.9-1.1-.6-1.9-1.3-1.2-.7-1.1-.6-1.2-.7-.9-.5-1-.5-2.1-.8-1.3-.2-1-.3-1.2-.3-1.3-.3h-1.3c0-.1-1.3-.1-1.3-.1l-1.5-.3h-3.8c0,.1-1.3.1-1.3.1l-1.3.4-1,.3-1.2.4-1.2.2-1.1.5-1.3.5-1.8,1.3-1.1.6-.9.8-.9.6-.9.8-.6.9-1.1.9-1.3,1.8-.6,1-.5,1.2-.6.9-.7,1.2-.4,1.2-.5,1-.4,1.3v1.3c-.1,0-.5,1.2-.5,1.2l-.3,1.3v2.6c-.1,0-.1,3-.1,3v1.3c.1,0,.1,1,.1,1v1.3c.1,0,.3,1.2.3,1.2l.4,1v1.3c.1,0,.5,1,.5,1l.4.9.5,1.3.7,1.3.5.9,1.3,2.1.8,1,.6.9,1.1.8.6.9.9.8,2.1,1.6.9.5,1,.7,1.2.5,1.3.5.9.5,2.6.8h1.2c0,.1,1.3.5,1.3.5h1.3c0,.1,5.6.1,5.6.1h1.6c0-.1,1.2-.1,1.2-.1l1.3-.5h1.3c0-.1,1.3-.5,1.3-.5l1-.3,1.2-.5,1-.5,1.2-.5.8-.5,1-.6v-11.6h-18.4v-18.6h41.5v41.7l-.9.6-.9.8-.9.7-1,.8-1,.5-.9.8-2.1,1.3-1.3.6-2.1,1.3-1.3.5-1,.5-1.2.5-2.6,1-1,.5-2.4.8-1.2.3-1.2.4-1.3.4-1,.2-3.9.8h-1.2c0,.1-2.6.4-2.6.4h-1.4c0,.1-1.3.2-1.3.2h-1.4c0,.1-6.5.1-6.5.1l-1.3-.2h-1.3l-1.3-.3h-1.2l-1.3-.4-3.8-.8-1-.4h-1.2c0-.1-1.3-.6-1.3-.6l-2.4-.8-2.3-1-1.3-.5-.9-.5-1.3-.5-.9-.8-1.3-.5-.8-.7-1-.6-2.1-1.6-1-.7-.8-.8-1-.8-1.7-1.7-.9-.8-.8-.9-.9-.9-.6-1-.8-.8-.6-1.1-.8-1-.6-.9-.7-1-.6-1.2-.5-1-.5-1.2-.5-1-1-2.4-.4-.9-.5-1.2-.3-1.2-.2-1-.3-1.3-.4-1.2-.3-1.3v-1c-.1,0-.3-1.3-.3-1.3l-.3-2.3-.3-2.6v-6.9l.3-1.3v-1.3l.4-1.3v-1.3l.4-1.2.4-1.3.5-2.3.4-1.3.4-1.2,1.6-3.5.5-1,.5-1.2.7-1.2.5-1,.7-.9,1.3-2.1.8-1,.8-.9.6-1,1.7-1.7.8-.9.9-.9.8-.9,1.1-.8,1.8-1.6,1-.8,1.1-.7.9-.8,1-.7,1.1-.5,1.2-.7,1.3-.6.9-.7,1.3-.5,1.2-.5,1.2-.6,1.1-.3,1.3-.4,1-.5,1.2-.2,1.2-.4,1.3-.3,1.1-.4,1.3-.3h1.3l1.2-.4h1.3l1.3-.3h1.2l1-.2ZM601.8,486.2h6.9l1.6.3h2.5l1.3.4h1.4l1.3.4,2.3.5,1.3.3,1.2.2,1.3.4,1.2.4,1,.3,1.2.4,1.3.4,1,.5,1.3.5,1.2.5,1.2.7.9.5,1.2.7,1.2.5,1.1.7,1.2.8.9.7,2.1,1.6,1,.6-.8,1-.6,1.1-.8.9-.8,1-.6,1.2-.7,1.1-.8.9-.8,1-.6,1.1-.8,1-.6.9-.8,1-.6,1.2-.8,1-.8.9-.8,1-.6,1.1-1-.8-1.2-.6-.9-.7-1-.6-1.2-.5-1.1-.7-1.2-.5-.9-.5-1.3-.5-.9-.5-1-.4-2.3-.8-2.6-.8-3.9-.8h-1.3c0-.1-2.4-.4-2.4-.4h-2.7l-1.4.3-1.3.3-1.2.3-1,.5-.9.5-1,.9-.8,1.2-.5,1.2v3.1l.7,1.4.5.8.8.8,1.3.7,1,.6,1.2.5,1.3.5,1.7.4.9.4,1.1.3,1.3.3,1,.4,1.2.3,1.4.4,1.3.4,1.4.4,1.4.3,1.2.4,1.4.4,1.3.3,1.2.3,3.9,1.2,1,.4,1.3.4,1.2.5,1.3.7,2.6,1,1.2.7,2.1,1.3,1.9,1.4,1.2.8.9.9.9,1.1.9.9.6.9.9,1.3.6.9.5,1.3.5.8.4,1.3.4,1.1.3,1.2.5,2.6v1.3c.1,0,.2,1.2.2,1.2v4.5c-.1,0-.4,2.6-.4,2.6l-.3,1.3-.4,1.2-.3,1.3-.4,1.3-.4,1.2-.5.9-.5,1.2-.6,1-.8.9-1.3,2.1-1.6,1.8-.9.6-1,.9-.8.8-1,.8-1,.5-1,.8-1.2.6-2.3,1.2-1.3.5-1.2.5-1.3.4-1.2.4-1.1.3-2.6.5-.9.3-1.3.3h-1.3l-1.2.3h-1.3l-1.3.3h-9.3l-3.9-.4-1.3-.3h-1.2c0-.1-2.6-.6-2.6-.6l-1.4-.3-1.2-.3-1.3-.4-1.3-.3-1.2-.4-1.3-.4-1.3-.5-1-.4-1.3-.4-1.3-.5-.9-.5-1.3-.4-1-.7-1.3-.5-1-.7-.9-.6-1.3-.7-.9-.5-1-.8-1-.6-1.1-.8-.9-.8-1-.8-.9-.6-1-.9.8-1,.9-.9.8-.9.9-1,.6-.9.8-1,.9-.9.8-.9.9-1,.6-.9.9-.9.8-1,.8-.9.9-1,.6-.9.9-.9.9-1,.9.8,1.2.8.9.8,1.3.7.9.7,1.2.8,1.1.7,1.2.5.9.7,1.2.4,1.3.5,1.1.5,1.2.4,1,.5,1.3.4,1.2.4,1.3.4h1.3c0,.1,1.2.5,1.2.5h1.3c0,.1,1.4.1,1.4.1l1.2.4h7l1.2-.2,1.3-.3h.9c0-.1,1.1-.5,1.1-.5l.9-.5,1.2-.8.7-.9.5-1,.4-1.2v-3l-.5-1.2-.6-1-.8-.8-1.2-.8-.9-.4-1.2-.5-1.3-.5-1.4-.6-.9-.3-1-.3-1.3-.4-.9-.2-1.3-.4h-1.3c0-.1-1.3-.6-1.3-.6h-1.3c0-.1-1.4-.5-1.4-.5l-1.2-.3-1.3-.4-1.3-.3-1.3-.4-1.2-.4-1.3-.3-1-.4-2.4-.8-1.3-.5-1.3-.4-2.6-1.1-1.2-.6-1.3-.7-.9-.6-1.2-.7-.9-.6-1.2-.7-1.7-1.7-.9-.8-1.6-1.8-.7-.9-.5-.9-.8-1.2-.4-.9-1.2-3.1-.2-1.3-.3-1.2v-1.2l-.3-1.3v-5.3l.3-2.6.3-1.1.2-1.2.4-1,.3-1.3.5-.9.5-1.3.5-1,.5-1.3.7-.9.9-1,.7-1.1,1-.9.8-.9.8-1.1,1.2-.9.8-.7,1-.8,2.1-1.3,1.2-.7,2.4-1.2,1-.4,1.2-.4,1.3-.5,1.3-.4.9-.3,1.2-.3,1-.3,1.2-.3,1.3-.3,2.6-.2h1.2c0-.1,1-.6,1-.6ZM293.9,487.1h23.6l1.1,2.4.5,1,.4,1.3.5,1.2.4,1,.7,1.2.8,2.4.7,1.2,1,2.3.3,1,2.1,4.7.4,1.2.5,1.1.6,1.2.3,1.2.7,1.3.2,1.2,1.2,2.3.5.9.5,1.3.4,1.3.4.9.7,1.3.4,1.1.5,1.3.4.9.5,1.3,1.2,2.3.4,1.2.3,1.2.5,1.2.6,1,.5,1.3.5,1.2.4,1,1.1,2.4.4,1.2.5,1.2.4,1.2.5,1,.7,1.2.5,1.2.5,1,.3,1.3,1,2.3.5,1.1.4,1.2,1.1,2.3.6,1.3.3,1,.7,1.3.2.9.5,1.3.7,1.3.5.9.4,1.3.5,1.1.4,1.3.7.9.8,2.6.5.9.5,1.3.7,1,.5,1.3.2,1.2.4,1,.5,1.2.6,1.1h-26l-.6-1.1-.4-1.2-.5-1.2-.5-1.3-.3-1-1.1-2.3-.4-1.1-1-2.3-.4-1-.5-1.3-.8-2.4-.5-1h-36.2l-.5,1.2-.4,1.1-.5,1.3-.5,1.2-.3,1-.5,1.3-.5,1-.4,1.2-.5,1.1-.5,1.3-.4.9-.5,1.3-.4,1.3-.5.9-.4,1.3h-25.8l.4-1.2,1.1-2.3.4-1.3.4-1,.7-1.2.5-1.2.5-1.1.3-1.2.5-1.3.7-1,.5-1.2.8-2.4,1.2-2.3.4-1.2.5-1,.4-1.2,1.6-3.5.5-1.3.4-1,.4-1.2.7-1.1.5-1.3.4-1.2.4-1,.5-1.3.7-.9.4-1.3.5-1,.4-1.2.5-1.3.6-1,.4-1.3.5-.9.4-1.3.5-1.3.5-.9.5-1.3.4-1.1.5-1.3.4-.9.7-1.3.5-1.3.5-1,.3-1.2.5-1.2.7-1.2.5-1,.3-1.3.5-1.2.5-1.1,1-2.3.4-1,1.1-2.6.5-.9.5-1.3.4-1,.4-1.3.5-1.2.7-1,.5-1.3.4-.9.4-1.3.5-1,.7-1.2.4-1.3.4-1.1.5-1.3.5-.9.7-1.3.4-1.3.4-.9.5-1.3.7-1.1ZM367.1,487.8h25.8l.8,1,1.3,2.1.6,1.2.7.9.6,1.2.7,1,.6,1.2.7,1,.6.9.7,1.2.6,1.1.9,1,.4,1,.8,1.2.6,1.1.8.9.5,1.2.6,1,.8,1.1.4,1,.9,1.2,1.9,3.1.5,1,.8,1,.7,1,.6,1.2,2,3.1.6,1.2.7,1,.8-1,.5-1.3.8-.9.7-1.2.6-.9.5-1.3.9-.9.7-1.2.5-.9.6-1.1.8-1.2.6-.9.7-1.3.6-.9.8-1.2.5-.9.7-1.3.6-.8.7-1.1.8-1.3.7-.9.5-1.2.8-.9.6-1.3.7-.8.8-1,.7-1.3.6-.9.7-1.2.6-.9.7-1.3.8-.9.5-1.2.7-.9h26.2v93h-24.5v-54.7l-.6.9-.8,1.3-.6.8-.8,1-.5,1.3-.8.9-.6.9-.8,1.3-1.3,1.8-.8,1-.7,1.3-.8.9-.7.9-.5,1.3-.8.9-.6.9-.8,1.3-.6.9-.8,1-.6,1.2-.5.9-.8,1-.7,1.2-.8.9-.8,1.1-.5,1-.7,1.2-.8.9-.8,1-.5,1.3-.9.8-.5,1-.8,1.3-.6.9h-.5l-.8-1.2-.7-1.1-.6-1.2-.7-.9-.8-1.2-.7-1-.8-1.1-.7-1-.6-1.2-.7-.9-.9-1.2-.5-1-.8-1.2-.7-.9-.6-1.2-.8-1.1-.6-1.3-.8-.9-.6-1.2-.7-1.1-.6-1.2-.8-.9-.6-1.2-.8-1-.5-1.1-.8-1-.6-1.2-.8-.9-.6-1.2-.8-1-.5-1.2-.9-.9-.5-1.2-.8-1v54.8h-24.1v-92.1l-.2-.8ZM482.7,487.8h73.3v21h-49v15h44v19.8h-44v15.9h49.6v21.1h-73.8v-92.7ZM305.3,516.3l-.4,1.2-.4,1.1-.5,1.3-.5,1.2-.4,1.2-1.1,2.3-.5,1.3-.4,1.1-.4,1.3-.5.9-.4,1.3-.5,1.3-.5.9-.4,1.3-.5,1-.4,1.3-.7,1.2-.3,1-.5,1.3-.5,1.2-.4,1-.5,1.3h21.5l-.5-1.3-.4-1.2-1-2.4-.4-1.2-.5-1-.4-1.3-.5-1.2-.4-1.2-.5-1.1-.4-1.2-.5-1.3-.4-1-1.1-2.3-.2-1.2-.5-1.2-.5-1.3-.4-.9-1.1-2.6-.4-1.2-.7-1ZM267.1,690.4h267l-136.3,44.9-130.7-44.9Z"/>
</svg>