<?xml version="1.0" encoding="UTF-8"?>
<svg id="Layer_1" xmlns="http://www.w3.org/2000/svg" version="1.1" viewBox="0 0 51 32">
  <defs>
    <style>
      .st0 {
        fill: #fff;
      }
    </style>
  </defs>
  <path class="st0" d="M49.6,15h0c.3-.2.5-.5.7-.8.1-.3.2-.7.2-1.1s-.2-1.1-.5-1.5h0c.7-2.1.8-4.1,0-5.8-2.8-6.8-16-7.7-29.5-2.1-4.6,1.9-8.6,4.4-11.9,7h9.1l-.7,3.7h0s-9,0-9,0l-.2,1.2h8.5l-.5,2.5,5.3-7.4h8.2l3.3,9.9,1.9-9.9h12.4c1.2,0,2.1.2,2.7.6.1,0,.2.2.3.3-1.1,3.2-3.7,6.6-7.5,9.7h3c1.9,0,3.2-.4,3.9-1.3.5-.6.7-1.4.7-2.4s-.2-1-.5-1.3c-.3-.3-.7-.6-1.3-.7h0c.5-.2.9-.4,1.3-.6Z"/>
  <path class="st0" d="M.8,21.3h0c-.3,1.7-.4,3.4.2,4.9,2.8,6.8,16,7.7,29.5,2.1,4.6-1.9,8.6-4.4,11.8-7h-15.7l-.3-1h-5.6l-.7,1h-6.5l1.8-2.5H7.2l-.5,2.5H.8c.9-3.5,3.6-7.2,7.8-10.6H2.8L.8,21.3Z"/>
  <polygon class="st0" points="8.5 10.7 8.6 10.7 8.5 10.7 8.5 10.7"/>
  <polygon class="st0" points="22.6 17.5 25.4 17.5 24.6 14.8 24.5 14.8 22.6 17.5"/>
  <path class="st0" d="M43.8,14.6c.1-.2.2-.3.2-.5,0-.4-.2-.6-.7-.6h-3.4l-.3,1.4h3.4c.4,0,.6-.1.8-.3Z"/>
  <path class="st0" d="M38.9,18.6h3.6c.4,0,.7-.1.8-.3,0,0,.1-.2.1-.3,0,0,0-.2,0-.3,0-.4-.3-.6-.8-.6h-3.6l-.3,1.5Z"/>
</svg>