<?xml version="1.0" encoding="UTF-8"?>
<svg id="Layer_1" xmlns="http://www.w3.org/2000/svg" version="1.1" viewBox="0 0 742 712">

  <defs>
    <style>
      .st0 {
        fill: #fff;
      }
    </style>
  </defs>
  <path class="st0" d="M368.7,1.3c-2.7,0-11.5.4-19.5,1-8,.4-21.6,1.8-30,3-8.3,1.3-20.8,3.6-27.6,5-6.7,1.5-18.5,4.8-26.3,7.1-7.7,2.5-19.2,6.4-25.5,8.8s-17.8,7.4-25.7,11.2c-7.8,3.7-19.1,9.6-24.9,13-5.8,3.5-15.9,10-22.5,14.4-6.5,4.4-16.2,11.7-21.7,15.9-5.3,4.3-13.8,11.6-18.7,16.1-5,4.7-13.1,12.6-18.1,17.8s-12.2,13.3-16.2,18.1-10.7,13.5-14.9,19.4c-4.3,6-10.8,15.7-14.6,21.7-3.7,6.1-10.2,17.5-14.2,25.6-4.1,8-9.9,20.5-12.9,27.6-2.9,7.1-7.1,18.3-9.2,24.9-2.2,6.5-5.3,17.9-7.1,25-1.8,7.3-4.5,20.7-6.1,29.8-1.4,9.2-3.1,22.5-3.8,29.7-.5,7.1-1.1,19.6-1.1,27.6s.5,20.5,1.1,27.6c.6,7.1,1.8,18.3,2.8,24.9,1,6.5,2.9,17.7,4.3,24.8,1.5,7,4.4,18.5,6.4,25.5,2.1,6.9,6,18.6,8.8,26.1,2.7,7.5,8.3,20.5,12.3,28.8,4,8.4,10.1,20.1,13.5,26,3.5,6,9.6,15.6,13.6,21.6,4,6,11.6,16.1,16.9,22.7,5.2,6.5,15.6,18.2,23.1,25.9,7.5,7.6,18,17.7,23.3,22.2,5.4,4.7,13.6,11.4,18.4,14.9s13.1,9.4,18.4,13c5.4,3.6,15.4,9.7,22.2,13.5,6.8,3.9,16.9,9.1,22.2,11.7,5.4,2.5,13.6,6.1,18.4,8,4.8,2.1,12.6,5,17.2,6.6l8.6,2.9,5-.8c2.7-.4,6.3-1.7,7.9-2.9,1.7-1.2,3.8-3.5,4.7-5.2l1.6-3.1v-35.3c0-19.4-.4-35.2-.9-35.2s-6,.8-12.2,1.7l-11.3,1.7-17.3-.5-17.3-.5-8.7-2.3c-4.8-1.3-13.1-4.4-18.5-7.1l-9.9-4.8-8.2-7.7c-4.4-4.2-9.9-10.2-11.9-13.3-2.2-3.1-5.8-10.3-8.2-15.8-2.4-5.6-6.7-14.1-9.5-18.8s-8.6-12.2-12.6-16.6-10.6-10.1-14.6-12.7-9.3-7-11.8-9.7c-2.6-2.8-4.7-5.8-4.7-6.7s.5-2.7,1.2-4c.6-1.2,2.8-2.8,4.8-3.7,2.1-.9,7.1-1.5,11.4-1.5h7.7l8.2,2.7c4.5,1.5,11.4,4.9,15.4,7.5,3.9,2.6,10.2,7.7,13.9,11.5,3.7,3.7,10.4,12.2,14.8,19,5,7.4,11,14.8,15.3,18.7,3.9,3.5,9.9,7.9,13.4,9.9,3.6,1.8,10.2,4.3,14.8,5.5,5,1.3,11.9,2.2,17.2,2.2s12.8-.8,17.4-1.6c4.8-.9,11.7-2.8,15.6-4.2l7-2.6.8-2.5c.4-1.4,1.5-5.8,2.6-10,1-4,3.5-10.8,5.5-15.1s5.4-10.1,7.5-13c2.2-2.8,3.6-5.6,3.2-6.1-.3-.5-3.9-1.3-7.9-1.7s-13-1.9-19.8-3.5c-6.8-1.4-17.8-4.3-24.4-6.4-6.5-2.1-16.6-5.8-22.3-8.4-5.6-2.6-14.4-7.4-19.5-10.7-5-3.2-12.2-8.6-16-11.8-3.9-3.2-10.7-10.3-15.3-15.8s-10.7-14.5-13.9-20c-3-5.5-7.3-14.5-9.3-19.8-2.1-5.4-4.8-13.9-6.1-19s-3-12.9-3.8-17.3-2.1-14.9-2.7-23.3c-.9-9.1-1.1-21.2-.6-30.3.3-8.3,1.4-18.8,2.3-23.3s2.9-12,4.4-16.8c1.6-4.8,4.8-12.6,7-17.3,2.2-4.8,6-11.6,8.2-15.2,2.4-3.6,6.6-9.3,9.4-12.8l5.1-6.3-3-11.6-3-11.6v-37.9c.1,0,2.9-11.9,2.9-11.9,1.5-6.6,4-14.8,5.4-18.4l2.6-6.4,3.7-.9c2.1-.4,6.5-.5,9.7-.2s10,1.5,14.8,2.7c4.9,1.1,13.2,3.7,18.4,5.6,5.2,2.1,14.4,6.2,20.4,9.2s15.9,8.7,22.2,12.6,12,7.1,12.8,7.1,6.7-1.2,13.2-2.7,18.3-3.7,26.2-4.9,20.5-2.5,27.9-2.8c7.5-.4,14.1-1.1,14.6-1.5.6-.4,4.2-.8,8.1-.5,3.9.1,7.8.4,8.7.9.9.3,7.5.9,14.6,1.2s19.8,1.5,28.2,2.8c8.3,1.2,20.7,3.6,27.5,5.1l12.2,2.9,2.9-1.6c1.5-1,7.4-4.4,12.8-7.9,5.5-3.4,15.3-8.7,21.7-11.9,6.5-3.1,15.2-7,19.3-8.6,4.2-1.6,11.7-3.9,16.7-5.2,5.1-1.2,13-2.3,17.5-2.4l8.4-.2,2.2,2.2c1.1,1.2,3.4,6.2,4.9,11.2s3.6,13.2,4.4,18.3c.9,5.2,1.9,14,2.3,19.7.3,5.7.1,14.5-.5,19.5-.6,5.1-2.2,13.4-3.5,18.5l-2.3,9.4,7,9.2c3.8,5.1,8.8,12.5,11,16.5,2.2,4,5.6,11,7.6,15.7s4.9,13.4,6.4,19.5c1.5,6.1,3.2,17.3,3.9,25l1.1,13.9-1.1,17.4c-.6,9.6-2.4,23.9-3.9,31.7-1.5,7.8-4,18.2-5.5,23-1.5,4.9-5,13.6-7.8,19.6s-7.5,14.5-10.4,19-10.4,13.3-16.7,19.6c-7,7-15.2,14-21,17.7-5.2,3.5-14,8.3-19.6,11-5.5,2.6-15.2,6.4-21.3,8.4s-17.1,5-24.3,6.6-17.2,3.5-22.4,4.1c-5.3.6-9.5,1.6-9.5,2.2s1.6,2.9,3.7,5.3,5.4,7.8,7.5,12.1c2.2,4.3,4.9,11.7,6.2,16.5,1.2,4.7,2.7,12.9,3.4,18.3.8,6.1,1,30.4.8,64.7l-.3,54.8,2.3,3c1.2,1.6,3.6,4,5.2,5.2l2.9,2.3h6.2c3.9-.1,9-1.2,13.8-2.9,4.2-1.5,13-5.1,19.5-7.9,6.6-2.8,17.5-7.9,24.4-11.5,6.8-3.5,18.1-9.9,24.9-14.1,6.8-4.3,17.9-11.8,24.5-16.7s17.2-13.4,23.5-19c6.4-5.4,17.2-15.8,23.9-23.1,6.8-7.3,15.9-17.7,20.1-23,4.3-5.4,10.8-14.2,14.6-19.5,3.7-5.4,9.7-14.6,13.3-20.7s9.2-16.2,12.5-22.7,7.3-14.7,8.9-18.3,5-12.1,7.6-19c2.6-6.8,6.4-18.5,8.6-26,2.2-7.5,5.1-19.2,6.5-26,1.5-6.8,3.8-20.8,5.1-30.9l2.4-18.4v-23.8c0-13.1-.5-28.9-1.3-35.2-.8-6.3-2.1-16.5-2.9-22.6s-2.8-16.7-4.3-23.3c-1.5-6.6-4.4-17.8-6.5-24.8-2.1-7-5.6-17.8-7.9-23.8-2.4-6.1-6.6-16.1-9.4-22.4-2.8-6.3-8-16.8-11.6-23.3-3.5-6.6-10.9-18.7-16.5-27.1-5.6-8.3-14.4-20.6-19.6-27.1-5.2-6.6-17.1-19.5-26.3-28.8-9.3-9.3-21.9-20.8-27.9-25.6-6-4.9-15.1-11.6-20-15.2-4.9-3.5-13.3-9.1-18.7-12.3-5.3-3.4-15.8-9.2-23.3-13.1s-19.1-9.3-25.9-12.1c-6.7-2.9-15.8-6.4-20-7.8-4.2-1.5-12.6-4.1-18.5-6-6-1.7-17.4-4.7-25.5-6.4s-20.4-3.9-27.5-4.9c-7-1-20.5-2.2-29.8-2.7s-19.1-1-21.8-.9Z"/>
</svg>