<?xml version="1.0" encoding="UTF-8"?>
<svg xmlns="http://www.w3.org/2000/svg" version="1.1" viewBox="0 0 512 512">

  <defs>
    <style>
      .st0 {
        fill: #fff;
        fill-rule: evenodd;
      }
    </style>
  </defs>
  <g id="Layer_1" image-rendering="optimizeQuality" shape-rendering="geometricPrecision" text-rendering="geometricPrecision">
    <path class="st0" d="M476.3,35.7h0c47.6,47.6,47.6,125.4,0,172.9l-101.7,101.7c-60,60-162.1,42.4-194.8-32.5,35.9-31.2,53.4-21.1,87.6-6.6,20.1,8.5,43.7,4,60.1-12.4l99.4-99.4c21.5-21.5,21.5-56.7,0-78.2-21.5-21.5-56.7-21.5-78.2,0l-71.3,71.3c-23.6-11.3-50.1-14.7-75.5-10.1,5.2-8.8,11.5-17,18.8-24.2l82.7-82.7c47.6-47.6,125.4-47.6,172.9,0h0ZM35.7,476.3h0c47.6,47.6,125.4,47.6,172.9,0l85.7-85.7c7.5-7.5,14-16,19.3-25.2-27.9,7-57.8,4-83.9-8.8l-70.2,70.2c-21.5,21.5-56.7,21.5-78.1,0-21.5-21.5-21.5-56.7,0-78.1l99.4-99.4c20.4-20.4,61-26.4,91.7,1.7,29.7-3.1,41.3-8.8,59.7-26.5-39.4-69.5-137.6-80-194.8-22.9l-101.7,101.7c-47.6,47.6-47.6,125.4,0,172.9h0Z"/>
  </g>
</svg>