<?xml version="1.0" encoding="UTF-8"?>
<svg id="Layer_1" xmlns="http://www.w3.org/2000/svg" version="1.1" viewBox="0 0 512 512">

  <defs>
    <style>
      .st0 {
        fill: #fff;
      }
    </style>
  </defs>
  <path class="st0" d="M71.2,33.8C49.4,46.8,6.4,96.2,6,109.1v21.4c0,27.2,25.4,51,48.4,51s50.7-22.9,50.7-50.2c0,27.2,22.3,50.2,50,50.2s49.2-22.9,49.2-50.2c0,27.2,23.7,50.2,51.4,50.2h.5c27.7,0,51.4-22.9,51.4-50.2,0,27.2,21.5,50.2,49.2,50.2s50-22.9,50-50.2c0,27.2,23.1,50.2,50.7,50.2s48.4-23.9,48.4-51v-21.4c-.4-12.9-43.4-62.3-65.2-75.3-67.8-2.4-114.8-2.8-184.8-2.8-70,0-165.5,1.1-184.8,2.8h0,0ZM204.1,168.8c-2.6,4.6-5.9,8.8-9.7,12.5-10.8,10.6-25.4,16.6-40.6,16.6-15.2,0-29.8-5.9-40.7-16.6-3.8-3.7-6.6-7.7-9.3-12.3h0c-2.6,4.6-6.3,8.6-10.1,12.3-10.9,10.6-25.4,16.6-40.6,16.5-1.9,0-3.9-.5-5.5-1.1-2.2,23.2-3.2,45.3-3.5,61.5h0c0,8.3,0,15-.1,24.4.4,48.6-4.8,157.6,21.4,184.4,40.7,9.5,115.5,13.8,190.7,13.8h0c75.1,0,150-4.3,190.7-13.8,26.3-26.8,21-135.8,21.4-184.4,0-9.4,0-16.1-.1-24.3h0c-.3-16.2-1.3-38.4-3.5-61.6-1.6.5-3.6,1.1-5.5,1.1-15.2,0-29.8-5.9-40.6-16.5-3.8-3.7-7.5-7.7-10.1-12.3h0c-2.6,4.6-5.5,8.6-9.3,12.3-10.9,10.6-25.5,16.6-40.6,16.6-15.8,0-30.1-6.3-40.6-16.6-3.8-3.7-7.1-7.9-9.7-12.5-2.6,4.6-5.9,8.8-9.6,12.5-10.9,10.6-25.5,16.6-40.7,16.6-.6,0-1.1,0-1.6,0h0c-.6,0-1.1,0-1.6,0-15.2,0-29.8-5.9-40.7-16.6-3.8-3.7-7-7.9-9.7-12.5h0q0,0,0,0ZM162.3,222.8h0s0,0,0,0c16.5,0,31.2,0,49.4,19.9,14.3-1.5,29.3-2.3,44.3-2.2h0c15,0,29.9.7,44.3,2.2,18.2-19.9,32.9-19.8,49.4-19.9h0c7.8,0,39.1,0,60.8,61.1l23.4,83.9c17.3,62.4-5.5,64-34.1,64-42.3-1.6-65.8-32.3-65.8-63-23.4,3.8-50.8,5.8-78.1,5.8h0c-27.3,0-54.7-1.9-78.1-5.8,0,30.7-23.4,61.5-65.8,63-28.5,0-51.4-1.6-34.1-64l23.4-83.9c21.8-61.1,53-61.1,60.8-61.1h0s0,0,0,0ZM256,270.8h0c0,0-44.6,40.9-52.6,55.5l29.1-1.2v25.4c0,1.2,11.7.7,23.4.2h0c11.7.5,23.4,1,23.4-.2v-25.4l29.1,1.2c-8-14.5-52.6-55.5-52.6-55.5h0s0,0,0,0h0Z"/>
</svg>