<?xml version="1.0" encoding="UTF-8"?>
<svg id="Layer_1" xmlns="http://www.w3.org/2000/svg" version="1.1" viewBox="0 0 595.3 245.4">

  <defs>
    <style>
      .st0 {
        fill: #fff;
      }
    </style>
  </defs>
  <path class="st0" d="M172.1,3.7l-54.2,21.4L63.7,3.7,0,28.8v187.8l63.7,25.2,54.2-21.4,54.2,21.4,63.7-25.2V28.8L172.1,3.7ZM172.1,13.9l54.2,21.4v77.5l-54.2-21.4V13.9ZM172.1,101.6l53.4,21.1-53.4,21.1-53.4-21.1,53.4-21.1ZM63.7,13.9l54.2,21.4v77.5l-54.2-21.4V13.9ZM63.7,101.6l53.4,21.1-53.4,21.1-53.4-21.1,53.4-21.1ZM9.5,210.1v-77.5l54.2,21.4v77.5l-54.2-21.4ZM117.9,210.1v-77.5l54.2,21.4v77.5l-54.2-21.4Z"/>
  <path class="st0" d="M359.2,182.9l-14-44.7h-13.8l-14,44.7-13.6-48.9h-13.9l18.9,71.7h13.3l16.1-46.9,16.3,46.9h13.1l19-71.7h-13.9l-13.6,48.9Z"/>
  <path class="st0" d="M497.4,205.8h13.5v-71.8h-13.5v71.8Z"/>
  <path class="st0" d="M414.9,151.3c-15.2,0-27.5,12.4-27.5,27.7s12.3,27.7,27.5,27.7,27.5-12.4,27.5-27.7-12.3-27.7-27.5-27.7ZM414.9,194.6c-8.5,0-15.4-7-15.4-15.5s6.9-15.5,15.4-15.5,15.4,7,15.4,15.5-6.9,15.5-15.4,15.5Z"/>
  <path class="st0" d="M564.5,134v22.3c-4.5-3.1-9.9-5-15.7-5-15.2,0-27.5,12.4-27.5,27.7s12.3,27.7,27.5,27.7,11.3-1.9,15.7-5v4.1h13.6v-71.9h-13.6ZM548.8,194.6c-8.5,0-15.4-7-15.4-15.5s6.9-15.5,15.4-15.5,15.4,7,15.4,15.5-6.9,15.5-15.4,15.5Z"/>
  <path class="st0" d="M482.8,167c-.2,0-.4,0-.5,0,.2,0,.4,0,.5,0Z"/>
  <path class="st0" d="M480.2,167.1c0,0,.2,0,.3,0,0,0-.2,0-.2,0,0,0,0,0,0,0Z"/>
  <path class="st0" d="M467.7,181.3c0-.4,0-.7,0-1.1,0,0,0,0,0,0,0,0,0,.8,0,1h0Z"/>
  <path class="st0" d="M480.6,167c.4,0,.9,0,1.3,0-.5,0-.9,0-1.3,0Z"/>
  <path class="st0" d="M467.7,181.3c0-.5,0-.6,0-1.1.5-6.8,5.8-12.3,12.4-13.2,0,0,0,0,0,0,0,0,.2,0,.2,0,0,0,0,0,.2,0,.4,0,.9,0,1.3,0h0c0,0,.2,0,.3,0,.2,0,.4,0,.5,0,.4,0,.9,0,1.3.1.5,0,.8.1.8.1v-14.7c-1.4,0-2.8.2-4.2.5-5,1-9.5,3.3-13.1,6.7h0v-5.3h-13.5v51.4h13.5v-24.4h0Z"/>
  <path class="st0" d="M422.4,106.8v4h12.1v-53.5h-12.1v3.7c-4.4-3-9.7-4.8-15.5-4.8-15.2,0-27.5,12.4-27.5,27.7s12.3,27.7,27.5,27.7,11.1-1.8,15.5-4.8ZM391.5,83.9c0-8.6,6.9-15.5,15.4-15.5s15.4,7,15.4,15.5-6.9,15.5-15.4,15.5-15.4-7-15.4-15.5Z"/>
  <path class="st0" d="M303.6,64.7l20.6,41.8h9.2l20.6-41.8v45.9h13.7V38.9h-14.6l-24.3,46.9-24.3-46.9h-14.6v71.7h13.7v-45.9Z"/>
  <path class="st0" d="M497,57.3h-16.3l-18.8,24.3v-42.7h-13.6v71.9h13.6v-27.8l19.4,27.8h16.3l-20-28.5,19.4-25Z"/>
  <path class="st0" d="M593.2,71.7c-.2,0-.4,0-.5,0,.2,0,.4,0,.5,0Z"/>
  <path class="st0" d="M590.6,71.8c0,0,.2,0,.3,0,0,0-.2,0-.2,0,0,0,0,0,0,0Z"/>
  <path class="st0" d="M578.1,86.1c0-.4,0-.7,0-1.1,0,0,0,0,0,0,0,0,0,.8,0,1h0Z"/>
  <path class="st0" d="M591,71.8c.4,0,.9,0,1.3,0-.5,0-.9,0-1.3,0Z"/>
  <path class="st0" d="M578.1,86.1c0-.5,0-.6,0-1.1.5-6.8,5.8-12.3,12.4-13.2,0,0,0,0,0,0,0,0,.2,0,.2,0,0,0,0,0,.2,0,.4,0,.9,0,1.3,0h0c0,0,.2,0,.3,0,.2,0,.4,0,.5,0,.4,0,.9,0,1.3.1.5,0,.8.1.8.1v-14.7c-1.4,0-2.8.2-4.2.5-5,1-9.5,3.3-13.1,6.7h0v-5.3h-13.5v51.7h13.5v-24.7h0Z"/>
  <path class="st0" d="M527.1,99.5c-7,0-13-4.8-14.8-11.2h41.9c.2-1.4.4-2.8.4-4.3,0-15.3-12.3-27.7-27.5-27.7s-27.5,12.4-27.5,27.7,12.3,27.7,27.5,27.7,21-6.9,25.2-16.7h-14.3c-2.8,2.8-6.7,4.6-10.9,4.6ZM527.1,68.4c6.4,0,11.9,4,14.2,9.6h-28.5c2.3-5.6,7.8-9.6,14.2-9.6h0Z"/>
</svg>