<?xml version="1.0" encoding="UTF-8"?>
<svg id="Layer_1" xmlns="http://www.w3.org/2000/svg" version="1.1" viewBox="0 0 337 328">

  <defs>
    <style>
      .st0 {
        fill: #fff;
      }
    </style>
  </defs>
  <path class="st0" d="M37.3,89.5c2.6.7,5.4,1.1,6.2,1,.9,0,2.2.2,3,.9.8.7,14.4,1.7,31,2.4,16.2.6,37.9,1.5,48.1,1.8,14.4.7,19.2.5,21.3-.7,1.7-.9,3.3-3.2,3.9-5.4.7-2.2.8-4.7.5-5.6-.3-1-8.6-9.7-18.1-19.4s-18-17.6-18.6-17.6-1.8-1.1-2.5-2.5c-.8-1.5-7.9-8.9-15.6-16.5-7.9-7.8-14.5-14-14.8-14s-2.6-1.6-5.2-3.4c-2.6-1.9-6.5-4-8.7-4.6-2.2-.6-7.8-1.4-12.5-1.7h0c-4.9-.2-11.2,0-14.8,1-3.4.8-8.2,2.6-10.5,4.2-2.4,1.5-4.6,3.7-4.9,4.7s-1.8,2.1-3.1,2.3c-1.4.2-3.3,1.8-4.4,3.8-1.1,1.8-3.3,5.8-4.9,8.7-1.6,3-2.5,5.6-2.2,6,.3.3,0,1.4-.8,2.4-.9,1-1.4,5-1.4,10.6s.7,9.9,1.8,12.2c1,1.8,1.8,4.1,1.8,4.9s1.1,3.5,2.6,5.9c1.4,2.5,3.1,4.6,3.9,4.6s1.9,1,2.6,2.3c.7,1.3,3.5,4,6.5,6.3,2.9,2.2,7.3,4.6,9.9,5.4Z"/>
  <path class="st0" d="M216.5,117.4c-.9-1.7-3.2-3.9-5-4.9-1.9-1-5.9-1.6-9.9-1.6h0c-3.7.2-11.7.9-17.9,1.7-9.5,1-11.6,1.7-13.3,3.9-1.3,1.5-1.8,3.1-1.5,3.8.3.6,3.7,3,7.2,5.2s10.5,8.2,15.6,13.2c5,5.1,10.6,11.7,12.4,14.9,1.8,3.1,3.9,6,4.6,6.5.6.5,1.5.9,1.8.9s1.5-.7,2.5-1.5c1.5-1,2.6-5.5,4.3-16.2,1.3-8.3,1.9-16.5,1.6-18.8-.5-2.2-1.5-5.4-2.4-7.1Z"/>
  <path class="st0" d="M194.4,197.5c-2.3-4.7-6.4-12.2-9.2-16.5-2.9-4.4-10.4-13.1-16.7-19.5-7-7.1-15.3-14-21.6-18-5.6-3.7-11.5-7.1-13.1-7.8-1.6-.6-4.4-1.8-6.4-2.6-1.8-.9-7.8-2.9-13.1-4.3-5.4-1.6-13.8-3.1-18.8-3.4h.2c-5-.4-12.2-.2-16,.2-3.8.6-9.7,2.1-13.1,3.2-3.4,1.3-8.3,3.4-11,4.9-2.5,1.5-6.4,4.3-8.6,6.2-2.2,1.9-6,6.2-8.8,9.4-3.7,4.3-5.8,8.7-8.3,16.4-1.8,5.8-3.3,12.2-3.1,14,.2,2.9.9,3.7,3.4,3.9,2.2.2,3.5-.3,4.9-2.4,1-1.6,4.7-4.7,8.2-7.1,3.5-2.3,9.2-5.2,12.7-6.4,4.7-1.6,9.5-2.2,18.4-2.2s14.5.7,20.3,2.3c4.4,1.3,12.2,4.3,17.1,6.8,4.9,2.5,12.4,7.6,16.8,11.3,4.4,3.7,10.5,9.8,13.7,13.6,3.3,3.9,8.1,10.8,10.7,15.4,2.6,4.7,5.9,11.4,7.3,15.2,2.2,5.8,2.5,9.1,2.6,23.8,0,16.5-.1,17.3-3.3,23.7-1.8,3.8-6,9.8-9.4,13.6-3.4,3.8-6.2,7.3-6.2,7.9s.8,1.7,1.8,2.6c.9,1,2.1,1.8,2.5,1.8s4.4-1,8.8-2.2c4.4-1.1,10.3-3.1,13.1-4.3,2.8-1.2,8.2-4.8,12.1-8,3.8-3.2,8.9-8.8,11.4-12.5,2.4-3.7,5.6-10.7,7.2-15.7,2.2-7.3,2.7-11.6,2.7-21.7s-.7-15.3-2.6-22.8c-1.4-5.7-4.3-14.1-6.6-18.8Z"/>
  <path class="st0" d="M244.2,179.3s0,0,.1,0c0,0,0,0,0,0h-.2Z"/>
  <path class="st0" d="M327.2,268.2c-1-3.4-3.3-9-5-12.3-2.4-4.6-12.2-15.1-38.6-41.4-32.7-32.7-35.4-35.1-39.3-35.2-2.5,0-5,.9-6.4,2.3-1.4,1.3-2.7,3.5-3.2,5-.3,1.5-.1,14.4.6,28.7.7,14.4,1.5,34.8,1.8,45.5.3,10.6,1.3,21.9,1.9,25.1.7,3.1,2.5,8.3,3.9,11.6,1.5,3.4,4.8,8.3,7.4,11.2,2.5,2.7,7.1,6.5,10,8.4,2.9,1.9,8.7,4.3,12.7,5.4,6.4,1.6,8.6,1.7,15.7.6,4.6-.8,9.7-2.1,11.4-2.9,1.7-.7,5.7-3,8.9-4.9,3.1-2.1,7.3-5.6,9.1-8,1.8-2.4,4.8-7.6,6.6-11.6,1.7-4.1,3.4-10.5,3.8-14.3.5-4.8,0-8.9-1.3-13.2Z"/>
  <path class="st0" d="M111.4,237.4c-3.1-4.7-8.1-10.5-11.2-13.1-3.1-2.5-8-6.3-11.1-8.2-3-1.9-8.1-4.3-11.4-5.2-3.2-1-9-1.9-12.8-2.3h0c-3.8-.4-9-.2-11.6.4-2.6.6-6.2,1.7-8,2.6-1.7,1-5.2,3.5-7.9,5.8-3.4,3-5.2,5.7-6.8,10.6-1.3,4.2-2.1,9.5-1.8,14.3,0,4.2,1,10.5,2.1,14,.9,3.5,4.1,10.2,7.1,14.6,2.9,4.6,8.4,11.1,12.3,14.5,4,3.4,9.9,7.6,13.2,9.4,3.3,1.7,9.8,4,14.4,5,5.8,1.3,10.3,1.6,14.8,1,3.5-.5,8.9-2.1,11.7-3.5,3-1.4,6.6-4.2,8.3-6.3,1.7-1.9,4.1-5.7,5.5-8.3,1.5-3,2.6-7.6,3-12.9.3-6.2,0-10-1.9-16-1.3-4.4-4.8-11.7-7.9-16.4Z"/>
</svg>